# xmcd
#
# Track frame offsets: 
#        150
#        11073
#        22715
#        32880
#        42353
#        54035
#        64685
#        75600
#        85685
#        97285
#        109080
#        121063
#        131048
#        140645
#        151478
#        165120
#        183075
#        193695
#        204775
#
# Disc length: 2877 seconds
#
# Revision: 1
# Processed by: cddbd v1.5.2PL0 Copyright (c) Steve Scherf et al.
# Submitted via: ExactAudioCopy v0.95b4
#
DISCID=e90b3b13
DTITLE=Lonnie Mack - Lonnie On The Move
DYEAR=1992
DGENRE=
TTITLE0=I Found A Love
TTITLE1=Soul Express
TTITLE2=I've Had It
TTITLE3=Wildwood Flower
TTITLE4=Snow On The Mountain
TTITLE5=I Washed My Hands In Muddy Water
TTITLE6=Shotgun
TTITLE7=Sticks And Stones
TTITLE8=Jam And Butter
TTITLE9=One Mint Julep
TTITLE10=Florence Of Arabia
TTITLE11=Lonnie On The Move
TTITLE12=Sa-Ba-Hoola
TTITLE13=Money (That's What I Want)
TTITLE14=Dorothy On My Mind
TTITLE15=Men At Play
TTITLE16=Oh Boy!
TTITLE17=Stand By Me
TTITLE18=Don't Make My Baby Blue
EXTD=
EXTT0=
EXTT1=
EXTT2=
EXTT3=
EXTT4=
EXTT5=
EXTT6=
EXTT7=
EXTT8=
EXTT9=
EXTT10=
EXTT11=
EXTT12=
EXTT13=
EXTT14=
EXTT15=
EXTT16=
EXTT17=
EXTT18=
PLAYORDER=
